<?xml version="1.0" standalone="no"?>
<!DOCTYPE svg PUBLIC "-//W3C//DTD SVG 20010904//EN"
 "http://www.w3.org/TR/2001/REC-SVG-20010904/DTD/svg10.dtd">
<svg version="1.0" xmlns="http://www.w3.org/2000/svg"
 width="1254.000000pt" height="1254.000000pt" viewBox="0 0 1254.000000 1254.000000"
 preserveAspectRatio="xMidYMid meet">

<g transform="translate(0.000000,1254.000000) scale(0.100000,-0.100000)"
fill="#000000" stroke="none">
<path d="M5314 9945 c-229 -50 -400 -199 -464 -404 -11 -35 -20 -78 -20 -97 0
-33 -1 -34 -39 -34 -72 0 -195 -21 -271 -46 -112 -37 -204 -96 -295 -188 -168
-171 -244 -383 -232 -648 l5 -118 -68 -45 c-356 -237 -459 -761 -218 -1118 23
-34 72 -92 109 -129 l68 -67 -19 -44 c-79 -177 -72 -425 16 -600 122 -243 352
-400 644 -439 l88 -11 4 -81 c16 -275 227 -495 548 -571 412 -96 802 108 895
470 13 52 15 279 15 1892 l0 1834 -26 77 c-59 180 -229 324 -430 367 -85 18
-228 18 -310 0z m350 -114 c121 -43 234 -142 284 -248 l27 -58 3 -1845 c2
-1814 2 -1846 -17 -1910 -74 -244 -329 -404 -615 -387 -305 18 -529 161 -606
388 -29 82 -31 202 -6 277 41 121 143 227 264 273 76 29 204 31 286 5 61 -20
79 -17 100 17 31 48 -90 98 -237 98 -151 0 -270 -48 -375 -151 -55 -54 -132
-180 -132 -216 0 -37 -233 7 -350 66 -80 40 -154 95 -202 148 -266 295 -226
729 85 915 50 31 85 42 184 63 35 7 48 40 28 71 -16 23 -21 25 -64 19 -121
-16 -248 -82 -330 -172 l-43 -45 -34 26 c-85 65 -177 214 -214 347 -24 88 -27
240 -5 342 23 110 94 244 172 327 61 64 150 136 157 127 2 -1 19 -37 38 -78
87 -186 250 -325 443 -375 78 -21 223 -30 256 -17 32 13 42 44 23 70 -11 17
-29 20 -121 25 -132 6 -205 30 -310 100 -125 83 -213 218 -248 380 -26 117
-17 305 19 412 59 176 182 324 331 402 95 49 178 72 289 80 l81 6 22 -74 c25
-85 81 -178 141 -231 46 -42 66 -46 94 -21 28 25 22 41 -36 104 -99 107 -138
223 -117 352 31 194 181 350 387 402 85 21 269 14 348 -14z"/>
<path d="M5381 8781 c-82 -87 -144 -216 -175 -362 l-6 -27 -62 33 c-101 53
-168 69 -296 70 -108 0 -115 -1 -133 -24 -23 -28 -23 -32 -5 -57 13 -17 25
-19 108 -16 206 6 389 -90 488 -256 69 -117 78 -181 57 -426 -1 -23 4 -33 25
-45 24 -14 28 -14 46 2 29 27 46 131 39 246 -8 135 -46 237 -126 339 -32 41
-41 60 -41 91 0 108 66 271 144 358 50 56 59 95 27 113 -32 17 -43 12 -90 -39z"/>
<path d="M5261 7199 c-134 -158 -189 -195 -351 -229 -121 -26 -206 -66 -270
-126 -50 -47 -62 -78 -38 -102 21 -21 50 -13 95 29 56 51 124 82 232 103 183
37 304 114 395 251 32 48 33 69 4 89 -31 22 -37 20 -67 -15z"/>
<path d="M6775 9761 c-65 -39 -89 -128 -51 -185 l17 -26 -117 -149 c-109 -139
-118 -149 -140 -139 -29 14 -85 3 -118 -23 -79 -62 -72 -190 13 -234 17 -8 52
-15 80 -15 47 0 50 -2 83 -47 19 -27 93 -129 164 -228 71 -99 133 -186 137
-192 4 -7 1 -26 -8 -42 -20 -39 -19 -104 1 -143 l16 -31 -143 -211 c-213 -315
-187 -284 -235 -278 -112 12 -194 -112 -137 -208 23 -40 86 -73 129 -68 l35 4
113 -195 c62 -108 134 -233 160 -277 l47 -82 -22 -36 c-20 -34 -23 -89 -8
-157 3 -10 -55 -85 -149 -192 l-152 -175 -65 6 c-65 5 -65 5 -104 -35 -22 -22
-43 -51 -46 -66 -19 -75 37 -161 112 -173 l39 -6 57 -195 57 -196 -30 -33
c-122 -139 77 -318 204 -185 76 80 16 231 -92 231 -34 0 -24 -24 -108 263
l-37 127 25 28 c50 54 62 110 34 164 -15 28 -14 29 142 205 l156 178 72 0 c53
0 77 4 91 17 17 16 26 12 178 -93 l160 -110 -3 -44 c-6 -77 47 -144 120 -152
91 -10 158 48 158 137 0 110 -104 172 -207 124 l-34 -17 -159 108 -159 108 5
41 c10 83 -61 160 -144 155 l-44 -3 -159 276 -159 276 22 36 c17 25 30 35 48
35 14 0 153 -19 309 -42 l284 -42 10 -30 c5 -16 21 -42 35 -58 79 -84 223 -35
239 82 13 93 -86 177 -177 151 -37 -11 -90 -56 -90 -77 0 -7 -5 -13 -12 -13
-19 0 -602 81 -615 85 -7 2 -13 13 -13 22 0 10 -7 29 -16 41 -15 21 -11 28 81
165 53 78 129 189 168 247 l70 106 58 -1 c66 0 105 22 129 73 13 28 20 32 60
33 78 2 180 2 353 1 l167 -2 0 -25 c0 -62 60 -125 117 -125 82 0 126 61 126
175 0 116 -42 175 -126 175 -55 0 -117 -63 -117 -120 0 -20 -4 -20 -284 -20
l-284 0 -6 23 c-3 12 -19 36 -36 52 -28 27 -38 30 -95 30 l-63 0 -38 55 c-21
30 -98 137 -171 237 l-132 183 20 45 c21 47 20 117 -2 131 -21 12 -4 42 97
172 l106 137 62 0 c70 0 107 19 133 69 21 41 21 108 -1 141 -40 61 -131 83
-191 46z m1042 -1236 c51 -35 55 -184 7 -232 -19 -19 -31 -23 -52 -18 -39 9
-51 24 -60 77 -24 127 34 222 105 173z"/>
<path d="M7800 9333 c-55 -28 -72 -72 -68 -175 4 -102 21 -135 85 -157 36 -13
43 -12 79 5 57 28 79 73 78 164 0 51 -5 85 -17 107 -33 62 -99 86 -157 56z
m99 -54 c40 -43 37 -174 -5 -220 -23 -25 -66 -24 -90 2 -15 16 -20 40 -22 103
-3 71 -1 84 18 109 27 34 71 36 99 6z"/>
<path d="M7068 9315 c-23 -15 -38 -33 -38 -45 0 -23 6 -24 40 -5 14 8 28 14
33 15 4 0 7 -63 7 -141 0 -140 0 -140 23 -137 22 3 22 4 21 168 l-1 165 -24 2
c-13 1 -41 -9 -61 -22z"/>
<path d="M8408 8550 c-27 -17 -48 -34 -48 -39 0 -19 20 -21 50 -6 l30 16 0
-141 0 -140 25 0 25 0 0 170 c0 195 1 192 -82 140z"/>
<path d="M7923 7774 c-40 -24 -52 -42 -37 -57 4 -3 19 0 35 8 15 8 30 15 34
15 3 0 5 -63 5 -140 l0 -140 25 0 25 0 0 170 c0 170 0 170 -22 170 -13 -1 -42
-12 -65 -26z"/>
<path d="M8593 7774 c-40 -24 -52 -42 -37 -57 4 -3 19 0 35 8 15 8 30 15 34
15 3 0 5 -63 5 -140 l0 -140 25 0 25 0 0 170 c0 170 0 170 -22 170 -13 -1 -42
-12 -65 -26z"/>
<path d="M7909 7015 c-40 -22 -62 -79 -63 -160 0 -78 16 -120 60 -154 53 -41
142 -13 170 54 18 44 18 156 0 199 -28 68 -104 95 -167 61z m102 -44 c20 -16
24 -30 27 -95 5 -87 -8 -128 -44 -144 -29 -14 -68 -1 -82 25 -31 58 -20 184
18 215 28 23 52 23 81 -1z"/>
<path d="M8598 7002 c-29 -16 -48 -34 -48 -44 0 -22 12 -23 50 -3 l30 16 0
-141 0 -140 25 0 25 0 -2 167 c-3 191 -3 190 -80 145z"/>
<path d="M8378 6208 c-22 -13 -38 -30 -38 -40 0 -22 12 -23 50 -3 l30 16 0
-141 c0 -139 0 -141 21 -138 21 3 22 8 25 166 l4 162 -27 0 c-16 0 -45 -10
-65 -22z"/>
<path d="M7717 6190 c-15 -12 -34 -35 -42 -50 -19 -37 -20 -159 -1 -204 38
-92 146 -102 202 -19 45 67 37 204 -15 257 -40 39 -105 47 -144 16z m115 -51
c36 -41 31 -175 -8 -214 -16 -16 -61 -20 -80 -7 -33 22 -48 151 -23 206 22 46
77 54 111 15z"/>
<path d="M7070 5958 c-80 -43 -103 -220 -39 -302 43 -55 140 -51 183 7 15 21
22 47 24 104 5 88 -8 140 -42 172 -29 27 -92 37 -126 19z m97 -49 c19 -16 35
-104 28 -153 -9 -60 -38 -96 -75 -96 -37 0 -66 36 -75 96 -9 60 10 140 39 160
21 15 60 12 83 -7z"/>
<path d="M1917 4993 c-4 -3 -7 -250 -7 -549 0 -592 -4 -554 56 -554 30 0 48
39 40 88 -2 17 -2 32 0 32 3 0 26 -17 52 -39 26 -21 61 -45 77 -54 98 -48 245
-48 348 1 250 117 299 471 92 661 -78 70 -145 95 -265 95 -83 1 -102 -3 -154
-27 -33 -15 -79 -43 -103 -63 l-43 -35 0 206 c0 123 -4 214 -10 226 -11 19
-68 28 -83 12z m498 -424 c118 -51 187 -154 189 -282 1 -100 -24 -168 -84
-227 -122 -123 -328 -118 -443 9 -49 54 -67 101 -74 187 -15 194 128 343 317
330 36 -2 79 -10 95 -17z"/>
<path d="M8551 4981 c-15 -27 -15 -1045 -1 -1072 12 -22 59 -26 78 -7 7 7 12
34 12 60 0 26 4 48 8 48 4 0 23 -15 41 -34 18 -19 61 -47 95 -62 54 -25 73
-28 166 -29 98 0 109 2 171 32 83 41 143 101 183 183 29 61 31 72 31 175 0
108 -1 113 -37 187 -44 89 -95 138 -183 180 -147 68 -340 35 -446 -78 l-24
-26 -5 229 -5 228 -37 3 c-28 2 -39 -1 -47 -17z m517 -421 c67 -29 135 -103
157 -171 27 -79 17 -199 -20 -268 -69 -125 -215 -180 -364 -135 -76 22 -163
109 -185 183 -31 105 -15 226 38 296 88 115 239 153 374 95z"/>
<path d="M9597 4993 c-4 -3 -7 -250 -7 -549 0 -485 2 -542 16 -548 26 -10 62
-7 71 7 11 17 12 1058 1 1080 -9 17 -67 25 -81 10z"/>
<path d="M2952 4967 c-44 -47 -19 -121 45 -133 27 -5 37 -1 63 24 35 36 38 69
9 106 -27 35 -86 36 -117 3z"/>
<path d="M3600 4665 c-276 -78 -380 -422 -196 -648 90 -111 268 -164 411 -122
62 17 139 60 170 95 28 31 34 25 37 -37 3 -55 4 -58 31 -61 55 -7 57 0 57 243
0 247 -8 290 -70 380 -87 126 -284 193 -440 150z m236 -104 c64 -29 127 -91
155 -155 35 -78 33 -192 -4 -268 -54 -110 -165 -174 -287 -165 -118 8 -206 63
-258 162 -23 43 -27 62 -27 140 0 79 4 97 28 147 70 143 244 204 393 139z"/>
<path d="M4587 4670 c-83 -21 -154 -75 -176 -133 -18 -47 -13 -118 12 -162 33
-58 95 -91 238 -126 68 -17 135 -37 149 -44 44 -23 72 -61 73 -99 2 -82 -56
-127 -174 -134 -99 -6 -173 16 -233 69 -24 22 -48 39 -53 39 -18 0 -55 -48
-51 -66 5 -27 94 -90 157 -111 68 -22 224 -25 293 -4 54 15 121 68 145 115 22
42 22 132 0 173 -38 72 -88 100 -252 142 -181 48 -215 70 -215 142 0 79 81
126 199 116 72 -6 133 -30 165 -66 24 -27 61 -27 79 0 29 41 -9 86 -108 129
-57 24 -188 35 -248 20z"/>
<path d="M5415 4665 c-27 -8 -53 -14 -57 -15 -18 -1 -92 -78 -105 -107 -20
-48 -16 -113 10 -163 28 -56 108 -101 228 -130 121 -28 169 -47 201 -77 35
-33 43 -72 25 -115 -23 -54 -75 -81 -168 -86 -100 -6 -173 16 -235 71 -40 35
-48 38 -69 29 -14 -6 -28 -24 -31 -39 -6 -23 -1 -32 35 -65 147 -130 470 -112
549 32 43 78 36 162 -20 226 -43 49 -85 68 -228 104 -68 17 -136 38 -151 45
-65 34 -80 115 -31 165 73 72 263 61 336 -19 36 -39 86 -22 86 30 0 83 -236
155 -375 114z"/>
<path d="M6350 4667 c-75 -22 -123 -49 -173 -99 -117 -116 -147 -313 -74 -471
38 -81 89 -132 175 -174 74 -37 79 -38 187 -38 98 0 116 3 167 27 119 56 157
107 106 142 -30 21 -29 21 -79 -19 -78 -62 -191 -81 -296 -50 -97 29 -185 135
-195 235 l-3 35 320 5 320 5 0 75 c-2 185 -137 323 -330 335 -50 3 -97 0 -125
-8z m186 -92 c27 -8 65 -28 86 -45 41 -34 88 -120 88 -162 l0 -28 -271 0 -271
0 6 38 c15 83 102 176 190 201 48 14 117 13 172 -4z"/>
<path d="M7335 4666 c-57 -18 -96 -40 -124 -70 -34 -36 -41 -33 -41 19 0 39
-3 45 -24 51 -14 3 -34 3 -45 -1 -21 -6 -21 -9 -19 -388 l3 -382 34 -3 c18 -2
38 1 43 6 5 5 11 124 13 265 5 273 10 304 58 355 76 82 231 92 313 20 56 -50
64 -95 64 -378 0 -263 1 -270 50 -270 49 0 50 7 50 271 0 157 4 258 11 280 49
146 244 197 358 94 56 -51 61 -79 61 -367 0 -184 3 -257 12 -266 15 -15 61
-15 76 0 19 19 17 519 -3 585 -22 75 -65 126 -132 159 -50 25 -69 29 -143 29
-106 0 -172 -27 -230 -92 l-39 -44 -53 54 c-41 43 -65 59 -107 71 -64 19 -131
20 -186 2z"/>
<path d="M10232 4670 c-62 -13 -157 -67 -198 -113 -77 -84 -116 -229 -95 -347
36 -205 186 -330 397 -330 154 0 334 105 284 165 -25 30 -49 28 -92 -10 -76
-65 -207 -84 -310 -45 -91 34 -171 136 -180 230 l-3 35 320 5 320 5 -1 75 c-1
184 -139 326 -327 335 -39 2 -91 0 -115 -5z m172 -94 c90 -27 157 -103 172
-193 l7 -43 -272 0 c-266 0 -271 0 -271 20 0 11 7 36 14 55 57 137 205 204
350 161z"/>
<path d="M2972 4658 c-17 -17 -17 -739 0 -756 19 -19 66 -15 78 7 6 13 10 148
10 371 0 223 -4 358 -10 371 -12 22 -59 26 -78 7z"/>
</g>
</svg>
